<svg viewBox="0 0 1920 1080" xmlns="http://www.w3.org/2000/svg"><defs><clipPath id="a"><path d="M4865.1 2319.9l75.8 44-42.5 19.3-36.3-25.8z"/></clipPath><radialGradient id="b" cx="0" cy="0" r="1" gradientTransform="matrix(467.98 0 0 -467.98 4363.7 2376.3)" gradientUnits="userSpaceOnUse"><stop stop-color="#58c9ec" offset="0"/><stop stop-color="#3674bf" offset=".4"/><stop stop-color="#232c5e" offset="1"/></radialGradient></defs><g fill="#d9effb"><path d="M1020.4 631.4l-1-1.6 27-15.7c3.2-2 7.3-2 10.7 0l22.1 13.3-.9 1.5-22.2-13.2a8.7 8.7 0 0 0-8.9 0l-26.8 15.7M1100.2 627l-.9-1.5 69.6-41.2a2.2 2.2 0 0 0 0-3.7l-23-14.2.9-1.5 23 14.2a4 4 0 1 1 0 6.8l-69.6 41.1M1024.4 570.4l-.8-1.6 67.8-39c.7-.5 1.1-1.2 1.1-2s-.4-1.5-1.1-2l-36-20.6a16 16 0 0 1-7.9-13.7V373.4c0-5 2.4-9.5 6.5-12.3l5.4-3.6 1 1.5-5.4 3.6a13 13 0 0 0-5.7 10.8v118c0 5.1 2.7 9.8 7 12.3l36 20.6c1.2.7 2 2 2 3.5a4 4 0 0 1-2 3.5l-67.9 39"/></g><path d="M1020 607.7a1.8 1.8 0 0 1-1-3.4l26.9-15.7c3.6-2.1 8-2.1 11.6 0l22.2 13.3a1.8 1.8 0 1 1-1.9 3l-22.1-13.2a7.8 7.8 0 0 0-8 0l-26.8 15.7c-.3.2-.6.3-1 .3" fill="#ee1696"/><path d="M982 691.8l-149.4-86.2c-5.2-3-4.5-8.2 1.5-11.7s15-3.8 20.2-.8l149.3 86.1c5.2 3 4.6 8.3-1.4 11.7s-15.1 3.9-20.3.9M1124.7 463.7a28 28 0 0 0-3.6-1.7l-6.8-3 .5 1.2c-5.2-1-10.8-1.1-16-.2l.3-1.3-8.1 3.6-3 1.4c-10 5.9-10 15.3 0 21.2s26.6 5.8 36.7 0c10.1-5.9 10.1-15.3 0-21.2" fill="#d9effb"/><g fill="#5f92d3"><path d="M1115 469.2a19 19 0 0 1-17.2 0c-4.8-2.7-4.8-7.1 0-9.9s12.4-2.7 17.2 0c4.7 2.8 4.7 7.2 0 10"/><path d="M1106.4 466.2a4.1 4.1 0 0 1-4.2-4.2V410h8.3V462c0 2.3-1.8 4.2-4.1 4.2"/><path d="M1109.3 411.7c-1.7 1-4.3 1-6 0s-1.6-2.5 0-3.4c1.6-1 4.3-1 6 0 1.6 1 1.6 2.5 0 3.4"/></g><path d="M1106.4 411.7a3.3 3.3 0 0 1-3.4-3.4v-49h6.7v49c0 1.9-1.5 3.4-3.3 3.4" fill="#d9effb"/><path d="M1154.5 385v-2l2.7-.4 3-2.2a2 2 0 0 1 2-.1l2.3 1.3 2.2-.3v2l-.5.5-7 3.1c-.6.3-1.4.3-2 0l-2.3-1.4c-.3-.1-.4-.3-.4-.6" fill="#4067b1"/><path d="M1154.8 382.5l5.4-4a2 2 0 0 1 2-.2l4.1 2.4c.6.3.5.9-.1 1.2l-7 3.1c-.6.3-1.4.2-2 0l-2.3-1.4c-.5-.3-.5-.8-.1-1.1" fill="#5f92d3"/><path d="M1145.6 391.8c.7 0 1.5-.2 2.2-.6l8.4-4.9a1 1 0 0 0-1-1.7l-8.4 5c-.7.3-1.8.3-2.4 0l-14.1-8.2a1 1 0 0 0-1.4.3 1 1 0 0 0 .4 1.4l14 8.1c.7.4 1.5.6 2.3.6" fill="#d9effb"/><g clip-path="url(#a)" transform="matrix(.1797 0 0 -.1797 189.7 790.7)"><path d="M4865.1 2319.9l75.8 44-42.5 19.3-36.3-25.8 3-37.5" fill="url(#b)"/></g><path d="M1151.5 362c-.8-.3-1.5-.8-2.3-1.4l-29-21.2c-5.3-3.9-10.7-4.9-14.9-2.7l-.3.1-40 23.3 3.5 1.2 14 6.4 19.2 13.5 15 8 .7.2c3.5-3 7.5-5.5 9.6-9.9 3.8-6.5 14.1-8.4 20.3-13.7l1.8 1.1c1.3-1.2 1.6-3 2.4-4.8" fill="#5f92d3"/><path d="M1164.2 352.5c-.6 0-1.2.2-1.6.5l-39.3 22.7 1.5 6 1.4-.8c-2.2 3.5-5.7 5.8-8.8 8.5l4.5.9 38.4-22.4.5-.2 1.5-1c3-2.2 4.6-6.2 4.6-11v-.5c0-1.5-1.2-2.7-2.7-2.7" fill="#4067b1"/><path d="M1110.5 335.6" fill="#ececec"/><path d="M1128.3 377.6v-.5a2.7 2.7 0 0 0-5.3 0v.5c0 3.6-1.2 6.2-3.2 7.2-2.2 1.2-5.7.3-9.2-2.2l-29-21.3c-4.5-3.3-9-4.4-12.9-3.4l24-14-27.8 16.2 3.6 1.2 14 6.4 19.2 13.5 15 8 .7.2c3.5-3 7.5-5.5 9.6-9.9l1.3-1.8v-.1" fill="#5f92d3"/><path d="M1116.7 391.6c-3.2 0-6.7-1.3-10-3.8l-29.1-21.3c-3.5-2.5-7-3.4-9.2-2.2-2 1-3.1 3.6-3.1 7.2a2.7 2.7 0 1 1-5.4 0c0-5.7 2.2-10 6-12 4.2-2.1 9.6-1.2 14.9 2.7l29 21.3c3.5 2.5 7 3.4 9.2 2.2 2-1 3.1-3.6 3.1-7.3v-.4a2.7 2.7 0 1 1 5.4 0v.4c0 5.8-2.2 10.2-6 12.1-1.5.8-3.1 1.1-4.8 1.1" fill="#d9effb"/><path d="M1093.9 439.2s-5.5-2.8-8.8 1.3a42 42 0 0 0-8.3 20.4c-.2 6.5 5.2 6 8.3 4.5 3.2-1.5 12.4-15 13-17.6.6-2.6-.7-6.2-1.5-6.9l-2.7-1.7" fill="#263c7a"/><path d="M1095.1 437.9l.3 5.6c0 1.2-.6 2.4-1.6 3-1 .5-2.4 1-4.3.6-4-.6-4.4-1.8-4.7-7.5-.3-5.6 10.3-1.7 10.3-1.7" fill="#5f92d3"/><path d="M1073.9 428.3s-5.5-2.8-8.8 1.3a42 42 0 0 0-8.3 20.4c-.2 6.5 5.1 6 8.3 4.5s12.4-15 13-17.6c.6-2.6-.7-6.2-1.5-6.9l-2.7-1.7" fill="#263c7a"/><path d="M1075 427l.3 5.6c0 1.2-.5 2.4-1.6 3-1 .5-2.3 1-4.2.6-4.1-.6-4.5-1.8-4.8-7.5-.3-5.6 10.4-1.7 10.4-1.7" fill="#5f92d3"/><path d="M1123.9 323c-1.6-26.4-28.5 3.8-28.5 3.8l-18.4 18-16.6 18.3a16.3 16.3 0 0 0-4.1 13.1l6.7 51a5 5 0 0 0 5 4.4c.7 0 1.5 0 2.5-.2 6-.9 5.5-6.6 5.5-6.6l-1.2-47.7 34.8-21s15.9-6.8 14.3-33.1" fill="#6f41a4"/><path d="M1143.9 333c-1.6-26.3-28.5 3.9-28.5 3.9l-18.4 18-16.6 18.2a16.3 16.3 0 0 0-4.1 13.2l6.7 51a5 5 0 0 0 5 4.4c.7 0 1.6 0 2.5-.2 6-1 5.5-6.6 5.5-6.6l-1.2-47.8 34.8-21s16-6.8 14.3-33" fill="#6f41a4"/><path d="M1128 248.5c20.4 8.4 20 20.5 20 20.5s-4 44.2-2.7 73.7c.6 12.3-65.5 13.3-55.7-19.6 11.7-38.9 7.3-70.3 12.7-75 5.5-4.7 20.4-1.8 25.7.4" fill="#ee1696"/><path d="M1134.5 259.2c-1 4.1-6.5 6.3-12 4.8s-9.4-6-8.3-10c1-4.2 6.5-6.4 12-5 5.7 1.5 9.4 6 8.3 10.2" fill="#fab6a9"/><path d="M1122.8 249.6c-3.8 0-7 1.7-7.7 4.6-.4 1.7 0 3.5 1.4 5.2 1.5 1.7 3.6 3 6.2 3.7 2.5.7 5 .5 7.1-.3 2-.8 3.4-2.2 3.8-3.9.4-1.7 0-3.5-1.4-5.2a13 13 0 0 0-9.4-4.1zm3.1 15.9a15 15 0 0 1-3.7-.5c-3-.8-5.5-2.3-7.2-4.4a7.8 7.8 0 0 1-1.8-7c1.2-4.6 7.2-7 13.3-5.5 3 .8 5.5 2.3 7.2 4.4a7.8 7.8 0 0 1 1.8 7 7.8 7.8 0 0 1-5 5.1c-1.4.6-3 .9-4.6.9" fill="#fff"/><path d="M1119.8 247.6s.2.8-.2 7.2c0 2 7 4 8.9 2.1 1.8-1.8 1-3.7 1.5-10.6.4-7-10.2 1.3-10.2 1.3" fill="#fab6a9"/><path d="M1130 246.3s-1.7 6.4-10.4 8.8l.1-5.8 10.3-3" fill="#eb8b8a"/><path d="M1135.5 230a15.7 15.7 0 1 1-30.4 7.8 15.7 15.7 0 0 1 30.4-7.8" fill="#fab6a9"/><path d="M1123.9 234.5s-8.7 3.7-14.6 3.7c-6 0-4.7-5-4.7-5l17.8-2.5 1.5 3.8" fill="#eb8b8a"/><path d="M1107.5 235.5s7.5-3.2 14.1-1.9a7 7 0 0 1 4 2.4c.3.4.7.7 1.2.9 1.2.2 3-4.6 5.4-4.8 2.2 0 3.8 1.5 1.9 4.5s-1.2 6.4-.4 6.8c.9.5 10-6.4 2-22.4-8-15.9-28.5-7.3-31.7-4 0 0-3.3 2.8-6 .2 0 0-3 22.9 9.5 18.3" fill="#fad644"/><path d="M1136.5 301.3v12c0 1.3-.6 2.6-1.6 3.5l-24.5 22.4 2.8 4.2 32.4-23.5a6.6 6.6 0 0 0 2.7-4.6l2.1-20.8-13.9 6.8" fill="#fab6a9"/><path d="M1146.2 263s7.5 11.2 10.2 40.7c0 0-12.7 4-19.9 1.7-7.2-2.3 9.7-42.4 9.7-42.4" fill="#ee1696"/><path d="M1135.2 277.2s-3 15.6-3.1 22.9c0 2 1.2 3.8 3 4.5v-27.4" fill="#d1078d"/><path d="M1128.8 354.7l-5.4-.7-35-20.2c-1.1-.7-3.1-.6-4.4.2l-24.8 14.3-3.3-.5v3.3c0 .4.3.8.8 1.2l39.6 22.9c1.2.6 3.1.5 4.4-.2l27-15.6c.8-.4 1.1-1 1.1-1.5v-3.2" fill="#263c7a"/><path d="M1102.5 342l-2.5-1.5h-27.3l-13.5 7.8-3.3-.4v3.2c0 .4.3.9.8 1.2l39.6 22.9a4 4 0 0 0 2.3.4l4-33.7" fill="#4067b1"/><path d="M1057.4 348l-1.5-.2v3.3c0 .4.2.8.8 1.2l.7.4V348" fill="#5f92d3"/><path d="M1096.7 375.4a5 5 0 0 0 3.8-.3v-5.5h-3.8v5.8" fill="#2e4b8d"/><path d="M1096.3 371.9l-39.6-22.9c-1.1-.6-1-1.8.3-2.5l27-15.6c1.3-.8 3.3-.8 4.4-.2l39.6 22.9c1.2.7 1 1.8-.3 2.5l-27 15.6c-1.3.8-3.2.8-4.4.2" fill="#fff"/><path d="M1095.7 368.4l-33-19c-1-.6-.8-1.5.2-2.1l14.5-8.2c1-.6 2.7-.7 3.7-.1l33 19c.9.6.8 1.5-.3 2.1l-14.5 8.2c-1 .6-2.7.7-3.6.1" fill="#d9effb"/><path d="M1085.5 330.1l-.4 2.8c-.3 2.3-.3 4.7.2 7l.5 2.4a3.4 3.4 0 0 0 2.7 2.7c1 .2 2-.6 2.2-1.7l.6-5.8s1.5 2 2.3 2-.8-6-2.5-9.2c-1.6-3.3-5.6-.2-5.6-.2" fill="#fab6a9"/><path d="M1099 286.6l-4.3 8.5c-1 2-1.6 4.1-1.7 6.3l-1.9 28.9-5.6-.2-2.5-32.3.1-3 3-16.4 12.9 8.2" fill="#fab6a9"/><path d="M1095 374l-3.3-4.2-35-20.3c-1.1-.6-2-2.4-2-3.9V317l-2-2.6 1.9-1.1c.3-.3.8-.3 1.4 0l39.6 23c1.1.6 2 2.4 2 3.9v31.2c0 .8-.3 1.4-.8 1.6l-1.8 1" fill="#263c7a"/><path d="M1070.8 357.7l-2.5-1.5-13.6-23.7V317l-2-2.6 1.9-1.1c.3-.3.8-.3 1.3 0l39.7 23c.6.3 1.1 1 1.5 1.7l-26.3 19.7" fill="#4067b1"/><path d="M1053.6 315.5l-1-1.1 2-1.1c.3-.3.8-.3 1.3 0l.7.5-3 1.7" fill="#5f92d3"/><path d="M1096 336.6a5 5 0 0 1 1.6 3.3l-3.9 2.2-1.8-3.2 4-2.3" fill="#2e4b8d"/><path d="M1093.7 337.4l-39.6-23c-1.2-.6-2 0-2 1.6l-.1 31.2c0 1.5 1 3.2 2 3.8l39.7 23c1 .6 2 0 2-1.5v-31.2c0-1.5-.9-3.3-2-3.9" fill="#5f92d3"/><path d="M1113.2 343.4l-.7 1.3a8.8 8.8 0 0 1-3.3 3.7l-3.9 2.4a4 4 0 0 1-4 .1h-.2c-1.2-.8-1.3-2.6-.3-3.7l4.1-4.2s-2.3 1.8-3 1c-.4-.5 2.3-3 4.4-3.1 2 0 4-1.7 4-1.7l2.9 4.2" fill="#fab6a9"/><path d="M1102.8 248s-15.1 16.4-21.2 31.5c0 0 5.1 9.3 17.8 13 12.6 3.6 3.4-44.5 3.4-44.5" fill="#ee1696"/><path d="M1096.5 291.5l2.5-23.6-5.8 22c1 .6 2.1 1.1 3.3 1.6" fill="#d1078d"/><path d="M1114 244.7l-4-1s2 3 4.8 3.7c2.8.8 3.2-1.6 3.2-1.6l-4-1" fill="#fff"/><path d="M1009 235.1l-161-92.8c-5.2-3-10-3.2-13.6-.9L814.2 153l13.5 2.5v381.5c0 15 9 32.6 20.4 39l158.6 91.7-4.5 14 19.7-11.4c4.6-2.4 7.5-8.3 7.5-16.8V274.2c0-15-9.2-32.5-20.5-39" fill="#6f41a4"/><path d="M1160.1 560.9l-24.1-14-24.2 14 24.2 14 24.1-14" fill="#d9effb"/><path d="M1136 561.9V546l28.9-16.6v15.7l-29 16.7" fill="#623da1"/><path d="M1136 546.1l-28.9-16.6v15.7l28.9 16.7V546" fill="#7844a6"/><path d="M1164.8 529.5l-28.8-16.7-28.9 16.7L1136 546l28.8-16.6" fill="#6f41a4"/><path d="M1064.7 348c0 2.5-1.7 3.5-3.9 2.2a8.6 8.6 0 0 1-3.8-6.7c0-2.4 1.7-3.4 3.8-2.2s3.9 4.2 3.9 6.7" fill="#fff"/><path d="M1024 559.3a1.8 1.8 0 0 1-.9-3.4l67.8-39c.6-.4.7-1 .7-1.2s0-.8-.7-1.1l-35.9-20.7c-5.2-3-8.4-8.5-8.4-14.5V361.3c0-5.2 2.6-10 6.9-13l5.4-3.7a1.8 1.8 0 1 1 2 3l-5.4 3.7a12 12 0 0 0-5.3 10v118c0 4.8 2.5 9.2 6.6 11.5l36 20.6c1.5 1 2.4 2.5 2.4 4.3 0 1.8-1 3.4-2.5 4.3l-67.8 39-.9.3" fill="#8e54b0"/><path d="M827.6 537.1c0 15.1 9.2 32.6 20.5 39.1l158.6 91.6-4.5 14 19.7-11.4c4.6-2.3 7.5-8.2 7.5-16.8V274.2c0-7.8-2.5-16.3-6.5-23.6L827.6 363.3v173.8" fill="#623da1"/><path d="M988.6 680.9l-160.8-93c-11.3-6.5-20.5-24-20.5-39V169.5c0-15 9.2-22 20.5-15.5l160.8 93c11.3 6.4 20.5 24 20.5 39v379.4c0 15-9.2 22-20.5 15.5" fill="#8e54b0"/><path d="M985.6 668.3L831.1 579c-8.4-4.8-15.2-17.8-15.2-29V176c0-11.2 6.8-16.4 15.2-11.5l154.5 89.2c8.4 4.9 15.3 17.9 15.3 29v374.1c0 11.2-6.9 16.3-15.3 11.5" fill="#fff"/><path d="M922.4 553.4l-75.8-43.8V325.2l35.7 20.6a80.2 80.2 0 0 1 40.1 69.5v138.1" fill="#f0f0ef"/><g fill="#d9effb"><path d="M819.4 307.4c-7.6-4.6-18.3-4-30 2.8a93.4 93.4 0 0 0-42.2 73v19.4l.8.5 76 44.7 1.2-23.2.9-9 4-14 .5-2.1 8.6-17.5 6.8-8.5 5.6-6.5 13.4-10.6 1.2-1 6.6-2.8 8.9-2.3h7l7.7 1.4-77-44.3" fill-opacity=".5"/><path d="M829.1 486.6l2.5-1.4v-88.3a18 18 0 0 0-2.5 6.2v83.5"/><path d="M906 530.9L829 486.6l.8-83.6 3-8.4 8.8-15.3 10.5-12.5 9.5-7.6L872 353l18.6-2.1 9.8 5.5 5.5 8.5 1.7 12.9-.5 139.7-1.2 13.4"/></g><g><path d="M819.4 307.4c-6.4-3.8-14.9-4-24.4 0l78.3 45.1 8.4-2.2h7l7.7 1.4-77-44.3" fill="#5f92d3"/><path d="M796.9 306.6a48.6 48.6 0 0 0-12.6 6.8l78 45 2.7-2 1.2-.9 6.6-2.8 2.6-.7-78.5-45.4" fill="#edf9fe" fill-opacity=".5"/><path d="M852.2 366.4l10.6-8.3-78-45c-3.5 2.4-6.9 5.3-10.1 8.6l77.5 44.7" fill="#fff" fill-opacity=".5"/></g><g><path d="M908.4 529.5l-2.5 1.4V380.2c0-25.3-17.8-35.6-39.7-23a88 88 0 0 0-39.7 68.9v20.3l-2.5 1.4v-20.3c0-26.9 19-59.7 42.2-73s42.2-2.6 42.2 24.3v150.7" fill="#5f92d3"/><path d="M896.2 482c-.5 0-1-.2-1.5-.5L839 449.2c-1.7-.9-3-3.3-3-5.5v-44c0-1.2.5-2.2 1.4-2.7.3-.2.7-.3 1-.3.5 0 1 .1 1.5.4l55.8 32.3c1.7 1 3 3.3 3 5.5v44c0 1.2-.5 2.2-1.3 2.7-.4.2-.7.3-1.1.3m-57.9-83.4h-.1c-.2.1-.5.5-.5 1.3v44c0 1.4 1 3.2 2 3.9l56 32.2.5.2h.2c.1-.1.4-.5.4-1.3v-44c0-1.4-1-3.2-2-3.9l-56-32.2-.5-.2" fill="#eaf7fd"/><path d="M856.2 451l-.4-.2c-1.4-.8-2.6-3-2.6-5v-21c0-2 1.2-2.8 2.6-2l.4.3c1.5.8 2.6 3 2.6 5v21c0 1.9-1.1 2.8-2.6 2M867.4 457.5l-.4-.2c-1.4-.8-2.6-3-2.6-5V440c0-2 1.2-2.8 2.6-2l.4.2c1.5.9 2.7 3.1 2.7 5v12.3c0 2-1.2 2.9-2.7 2" fill="#b8d8ed"/><path d="M878.7 464l-.4-.2c-1.5-.9-2.7-3.1-2.7-5v-29.2c0-2 1.2-2.9 2.7-2l.4.2c1.4.8 2.6 3.1 2.6 5V462c0 2-1.2 2.9-2.6 2" fill="#4067b1"/><path d="M887.4 272.8l-49.1-28.3c-2.2-1.3-4-4.7-4-7.6v-36.5c0-3 1.8-4.3 4-3l49.1 28.4c2.2 1.2 4 4.6 4 7.5V270c0 2.9-1.8 4.2-4 3" fill="#f0f0ef"/><path d="M882.6 214.9l-49.2-28.4c-1-.6-1.8-.6-2.5-.2L826 189l3.4 1.2V226c0 3 1.7 6.3 3.9 7.6l47 27.1v4.2l4.8-2.8c.8-.5 1.3-1.6 1.3-3.1v-36.6c0-2.9-1.8-6.3-4-7.5" fill="#623da1"/><path d="M877.7 264.8l-49.1-28.4c-2.2-1.3-4-4.7-4-7.6v-36.5c0-3 1.8-4.3 4-3l49.1 28.4c2.2 1.2 4 4.6 4 7.5v36.6c0 2.9-1.8 4.2-4 3" fill="#7844a6"/></g><g fill="#fff"><path d="M877.7 217.7l-49.1-28.4c-1.3-.7-2.4-.6-3.1.2a3 3 0 0 1 1.7.5l49.2 28.3c2.2 1.3 4 4.7 4 7.6v36.5c0 1.3-.4 2.2-1 2.8 1.3-.1 2.3-1.3 2.3-3.4v-36.6c0-2.9-1.8-6.3-4-7.5M845 223.8c0 2.1-1.4 3-3.3 1.9s-3.3-3.6-3.3-5.7 1.5-3 3.3-2c1.9 1.1 3.4 3.7 3.4 5.8"/><path d="M855.1 229.6c0 2.1-1.5 3-3.3 2a7.3 7.3 0 0 1-3.3-5.8c0-2.1 1.5-3 3.3-2 1.8 1.1 3.3 3.7 3.3 5.8M865.2 235.4c0 2.1-1.5 3-3.4 2-1.8-1.1-3.3-3.7-3.3-5.8s1.5-3 3.3-2c1.9 1.1 3.4 3.7 3.4 5.8"/></g><g><path d="M985.2 465.8l-49.1-28.4c-2.2-1.3-4-4.7-4-7.6v-82.2c0-3 1.8-4.3 4-3l49.1 28.4c2.2 1.2 4 4.6 4 7.5v82.3c0 2.9-1.8 4.2-4 3" fill="#f0f0ef"/><path d="M980.3 362l-49.1-28.3c-1-.6-1.9-.6-2.5-.2l-4.8 2.7 3.3 1.2V419c0 3 1.8 6.3 4 7.6l47 27.1v4.2l4.8-2.8c.8-.5 1.3-1.6 1.3-3.1v-82.3c0-2.9-1.8-6.3-4-7.5" fill="#5f92d3"/><path d="M975.5 457.7l-49.2-28.4c-2.1-1.3-4-4.6-4-7.6v-82.2c0-3 1.9-4.3 4-3l49.2 28.4c2.2 1.2 4 4.6 4 7.5v82.3c0 2.9-1.8 4.2-4 3" fill="#d9effb"/><path d="M975.5 364.9l-49.2-28.4c-1.2-.7-2.3-.6-3 .2a3 3 0 0 1 1.7.4l49.2 28.4c2.2 1.3 4 4.7 4 7.6v82.2c0 1.3-.4 2.2-1 2.8 1.3-.1 2.2-1.4 2.2-3.4v-82.3c0-2.9-1.7-6.3-4-7.5" fill="#fff"/><path d="M985.2 576.9l-49.1-28.4c-2.2-1.3-4-4.7-4-7.6v-82.2c0-3 1.8-4.3 4-3l49.1 28.4c2.2 1.2 4 4.6 4 7.5V574c0 2.9-1.8 4.2-4 3" fill="#f0f0ef"/><path d="M980.3 473.2l-49.1-28.4c-1-.5-1.9-.6-2.5-.2l-4.8 2.7 3.3 1.3V530c0 2.9 1.8 6.3 4 7.5l47 27.1v4.2l4.8-2.7c.8-.5 1.3-1.6 1.3-3.2v-82.2c0-3-1.8-6.3-4-7.6" fill="#d1078d"/><path d="M975.5 568.8l-49.2-28.4c-2.1-1.3-4-4.6-4-7.5v-82.3c0-2.9 1.9-4.2 4-3l49.2 28.4c2.2 1.3 4 4.6 4 7.5v82.3c0 2.9-1.8 4.2-4 3" fill="#ee1696"/><path d="M975.5 476l-49.2-28.4c-1.2-.7-2.3-.6-3 .2a3 3 0 0 1 1.7.5l49.2 28.3c2.2 1.3 4 4.7 4 7.6v82.2c0 1.3-.4 2.2-1 2.8 1.3 0 2.2-1.3 2.2-3.4v-82.3c0-2.9-1.7-6.3-4-7.5" fill="#fff"/><path d="M958.1 487.1c0 4.6-3.2 6.5-7.2 4.2s-7.1-7.9-7.1-12.4 3.2-6.5 7.1-4.2 7.2 7.9 7.2 12.4M961 500v-.1c-.3-2-2-3.7-3.3-3.2-1.8.6-4.2.3-6.8-1.2-2.6-1.5-5-3.9-6.8-6.7-1.2-1.8-3-2.2-3.3-.6v.1l-3.4 21.6 27 15.7-3.3-25.5" fill="#d1078d"/></g><g fill="#fff"><path d="M958.1 487.1c0 4.6-3.2 6.5-7.2 4.2s-7.1-7.9-7.1-12.4 3.2-6.5 7.1-4.2 7.2 7.9 7.2 12.4M961 500v-.1c-.3-2-2-3.7-3.3-3.2-1.8.6-4.2.3-6.8-1.2-2.6-1.5-5-3.9-6.8-6.7-1.2-1.8-3-2.2-3.3-.6v.1l-3.4 21.6 27 15.7-3.3-25.5M966.4 542l-33-19v-2.4l33 19v2.4M956.5 546.6l-23-13.2V531l23 13.3v2.3M953.4 539.7l-20-11.5v-2.4l20 11.5v2.4M966.4 547.2l-10-5.7V539l10 5.7v2.4"/></g><g fill="#5f92d3"><path d="M966.5 383.5l-33-19V362l33 19v2.4M956.5 388l-23-13.2v-2.4l23 13.3v2.4M953.4 381.1l-19.9-11.5v-2.4l20 11.5v2.4M966.5 388.6l-10-5.7v-2.4l10 5.8v2.3M966.5 403.5l-33-19V382l33 19v2.4M956.5 408l-23-13.2v-2.3l23 13.2v2.4M953.4 401.1l-19.9-11.5v-2.3l20 11.4v2.4M966.5 408.7l-10-5.8v-2.3l10 5.7v2.4M966.5 423.5l-33-19V402l33 19v2.4M956.5 428.1l-23-13.2v-2.4l23 13.3v2.3M953.4 421.2l-19.9-11.5v-2.4l20 11.5v2.4M966.5 428.7l-10-5.8v-2.3l10 5.7v2.4"/></g><g fill="#fff"><path d="M862.7 479.7L839.2 466V464l23.5 13.6v2.2M877.3 488l-10-5.7V480l10 5.8v2.2M863.5 484.9l-10-5.8v-2.2l10 5.8v2.2M885.2 497.4l-18-10.4V485l18 10.3v2.2M897.6 509.3L870.9 494v-2.2l26.7 15.3v2.2M891.6 496.4l-10-5.8v-2.2l10 5.8v2.2M849.3 476.7l-10-5.8v-2.2l10 5.8v2.2M866.6 491.5l-27.4-15.9v-2.2l27.4 15.9v2.2M856 490.1l-16.5-9.5v-2.2l16.6 9.6v2.1"/></g><g><path d="M1099.8 605.7c-.6 0-1.2-.3-1.6-.8-.5-.9-.2-2 .7-2.5l69.6-41.1c.5-.4.6-.9.6-1.1s0-.8-.6-1.1l-19-11.4a1.8 1.8 0 1 1 1.8-3l19 11.3c1.5.9 2.4 2.5 2.4 4.2 0 1.7-.9 3.3-2.4 4.2l-69.6 41.1c-.3.2-.6.2-1 .2" fill="#8e54b0"/><path d="M1113.4 637.2l-24.2-13.9-24.1 14 24.1 13.9 24.2-14" fill="#d9effb"/><path d="M1089.2 638.3v-15.8l28.9-16.6v15.7l-28.9 16.7M1089.2 622.5l-28.8-16.6v15.7l28.8 16.7v-15.8" fill="#d1078d"/><path d="M1118.1 605.9l-28.9-16.7-28.8 16.7 28.8 16.6 29-16.6" fill="#ee1696"/></g><g stroke-width="3.5" aria-label="liven"><path d="M711.3 930.8l-1 9.4q-36-1.7-36-51.3v-95.2h11.3V885q0 10.7 1 18.1t3.4 14.2q2.6 6.8 8 10.2 5.2 3.2 13.3 3.2zM789.6 937.6h-11.3v-96.7h11.3zm-6-135.2q4 0 6.4 2.7 2.7 2.5 2.7 6.4T790 818q-2.4 2.2-6.4 2.2t-6.4-2.2q-2.3-2.5-2.3-6.5t2.3-6.4q2.4-2.7 6.4-2.7zM947.8 840.9l-43.5 96.7h-9.9l-41.8-96.7H864l35.7 84.7 36.7-84.7zM1015 890q.5 18.4 11 29.6 10.5 11.2 28.1 11.2 16.5 0 33.9-6.9l1 9.3q-17 7-36 7-21.8 0-35.6-13.4-13.8-13.6-13.8-35 0-23 13.2-37.9 13.5-15.1 35-15.1 40.7 0 41.7 51.3zm67.1-9.4q-.4-14.7-9-23.5t-22.6-8.8-23.5 9.2q-9.4 9.1-11.5 23.1zM1245.7 937.6h-11.4v-55q0-34.4-28.7-34.4-11.4 0-20.6 9.7-9.3 9.6-9.3 21v58.7h-11.4v-72.9q0-8.5-1.9-23.8h10.6q2 5.8 2.3 17.2 11-19.3 32.6-19.3 37.8 0 37.8 43.9z"/></g></svg>